<!DOCTYPE svg PUBLIC "-//W3C//DTD SVG 1.1//EN" "http://www.w3.org/Graphics/SVG/1.1/DTD/svg11.dtd">

<!-- Uploaded to: SVG Repo, www.svgrepo.com, Transformed by: SVG Repo Mixer Tools -->
<svg width="74px" height="74px" viewBox="0 0 14.00 14.00" role="img" focusable="false" aria-hidden="true" xmlns="http://www.w3.org/2000/svg" fill="#000000" stroke="#000000" stroke-width="0.7">

<g id="SVGRepo_bgCarrier" stroke-width="0"/>

<g id="SVGRepo_tracerCarrier" stroke-linecap="round" stroke-linejoin="round"/>

<g id="SVGRepo_iconCarrier"> <g transform="translate(-.02439032 .12195114) scale(.29268)"> <path fill="#3e247a" d="M12 40V20h32v20c0 2.2-1.8 4-4 4H16c-2.2 0-4-1.8-4-4z"/> <path fill="#6bb9e1" d="M44 16v6H12v-6c0-2.2 1.8-4 4-4h24c2.2 0 4 1.8 4 4z"/> <g fill="#37474f"> <circle cx="37" cy="16" r="3"/> <circle cx="20" cy="16" r="3"/> </g> <path fill="#2fcaa4" d="M37 10c-1.1 0-2 .9-2 2v4c0 1.1.9 2 2 2s2-.9 2-2v-4c0-1.1-.9-2-2-2zm-17 0c-1.1 0-2 .9-2 2v4c0 1.1.9 2 2 2s2-.9 2-2v-4c0-1.1-.9-2-2-2z"/> <path fill="#20bca2" d="M32 34h4v4h-4zm-6 0h4v4h-4zm-6 0h4v4h-4zm12-6h4v4h-4zm-6 0h4v4h-4zm-6 0h4v4h-4z"/> <circle cx="16" cy="15" r="12" fill="#38f55e"/> <circle cx="16" cy="15" r="9" fill="#eee"/> <path d="M15 8h2v7h-2z"/> <path d="M20.5183 18.1009l-1.3433 1.3433-3.81780007-3.81780007 1.3433-1.3433z"/> <circle cx="16" cy="15" r="1.5"/> </g> </g>

</svg>